<svg id="Layer_1" data-name="Layer 1" xmlns="http://www.w3.org/2000/svg" viewBox="0 0 200 200"><defs><style>.cls-1{fill:#006fb9;}.cls-2{fill:#4bbced;}.cls-3,.cls-4{fill:#fff;}.cls-3{stroke:#fff;stroke-miterlimit:10;stroke-width:0.85px;}</style></defs><path class="cls-1" d="M128.61,84.14c-.69,1-1.44,1.86-2.23,2.75a35.45,35.45,0,0,1-47.62,4.7c-.83-.61-1.64-1.29-2.42-2a35.11,35.11,0,0,1-2.52-2.51A28.08,28.08,0,0,1,72,84.86c.59.51,1.19,1,1.8,1.45a35.46,35.46,0,0,0,47.62-4.69c.8-.9,1.54-1.81,2.23-2.75a35.44,35.44,0,0,0-.55-42.56l.62.53a34.81,34.81,0,0,1,2.5,2.51A35.43,35.43,0,0,1,128.61,84.14Z"/><path class="cls-2" d="M123.6,78.87c-.69.94-1.43,1.85-2.23,2.75a35.46,35.46,0,0,1-47.62,4.69c-.61-.44-1.21-.94-1.8-1.45a35.4,35.4,0,0,1-.55-42.54c.69-1,1.43-1.86,2.22-2.76a35.45,35.45,0,0,1,47.62-4.7c.61.46,1.22,1,1.81,1.45A35.44,35.44,0,0,1,123.6,78.87Z"/><path class="cls-3" d="M121.3,66.47a24.41,24.41,0,0,1-2.43,2.35A23.5,23.5,0,0,1,104,74.31c-.46,0-.91,0-1.37,0A38.84,38.84,0,0,0,75,85.91,23.61,23.61,0,0,1,96,52.14c.5,0,1,0,1.49,0a38.88,38.88,0,0,0,27.6-11.61A23.65,23.65,0,0,1,121.3,66.47Z"/><path class="cls-1" d="M114.65,61.12c-.8.81-1.63,1.59-2.46,2.31A35.46,35.46,0,0,1,99.7,70.82q-.49.12-1,.27c-7.39,2.19-15.86,7.33-23.59,14.79-.5-5.5,3.32-13.57,10.23-20.55.81-.82,1.63-1.59,2.47-2.32a35.35,35.35,0,0,1,12.43-7.36l1.08-.3c7.37-2.19,15.83-7.33,23.55-14.78C125.38,46.07,121.56,54.15,114.65,61.12Z"/><ellipse class="cls-4" cx="86.35" cy="40.57" rx="7.45" ry="4.56" transform="translate(-8.87 46.59) rotate(-28.78)"/><path class="cls-4" d="M39.75,145.89V122.72h2.66v2.77a6.79,6.79,0,0,1,5.91-3.43c4.31,0,7.28,3.32,7.28,8.33s-3.15,8.54-7.49,8.54a6.77,6.77,0,0,1-5.7-3.22v10.18Zm13-15.5c0-3.68-1.86-5.85-5-5.85s-5.46,2.52-5.46,6,2.14,5.91,5.36,5.91S52.77,134.13,52.77,130.39Z"/><path class="cls-4" d="M58.68,130.49a8.51,8.51,0,1,1,8.51,8.44A8.3,8.3,0,0,1,58.68,130.49Zm14.21,0a5.71,5.71,0,1,0-5.7,5.95A5.74,5.74,0,0,0,72.89,130.49Z"/><path class="cls-4" d="M78.39,135.53l2.1-1.43.17,0a4.45,4.45,0,0,0,4,2.49c1.89,0,3.08-.88,3.08-2.17,0-1-.53-1.86-3.57-2.94C80,130,79,128.53,79,126.43c0-2.34,2-4.37,5.5-4.37A5.7,5.7,0,0,1,90,125.35l-1.82,1.26-.28,0a3.65,3.65,0,0,0-3.57-2.2c-1.71,0-2.69.87-2.69,2s.42,1.68,3.6,2.87c4,1.5,5.18,2.83,5.18,5.18,0,2.55-2.31,4.55-5.84,4.55A6.73,6.73,0,0,1,78.39,135.53Z"/><path class="cls-4" d="M93.05,135.53l2.1-1.43.18,0a4.43,4.43,0,0,0,4,2.49c1.89,0,3.08-.88,3.08-2.17,0-1-.52-1.86-3.57-2.94-4.2-1.51-5.21-3-5.21-5.08,0-2.34,2-4.37,5.49-4.37a5.71,5.71,0,0,1,5.57,3.29l-1.82,1.26-.28,0a3.66,3.66,0,0,0-3.57-2.2c-1.72,0-2.7.87-2.7,2s.42,1.68,3.61,2.87c4,1.5,5.18,2.83,5.18,5.18,0,2.55-2.31,4.55-5.85,4.55A6.74,6.74,0,0,1,93.05,135.53Z"/><path class="cls-4" d="M108.77,115.33a2,2,0,0,1,2-2,2,2,0,0,1,2,2,2,2,0,0,1-3.92,0Zm.63,22.93V122.72h2.66v15.54Z"/><path class="cls-4" d="M120.28,135.57v2.69h-2.55V112.61h2.66v12.88a6.79,6.79,0,0,1,5.91-3.43c4.31,0,7.28,3.29,7.28,8.33s-3.15,8.54-7.49,8.54A6.85,6.85,0,0,1,120.28,135.57Zm10.47-5.18c0-3.68-1.86-5.85-5-5.85s-5.46,2.52-5.46,6,2.14,5.91,5.36,5.91S130.75,134.13,130.75,130.39Z"/><path class="cls-4" d="M138,138.26V112.61h2.66v25.65Z"/><path class="cls-4" d="M147.86,131v.14a5,5,0,0,0,5.22,5.39c2,0,3.46-.91,4.76-2.9l.28-.07,1.92,1.29a7.89,7.89,0,0,1-7.07,4.1c-4.72,0-7.94-3.43-7.94-8.4s3.22-8.47,7.77-8.47,7.45,3,7.45,8.33a4.37,4.37,0,0,1,0,.59Zm.11-2.17h9.45a4.35,4.35,0,0,0-4.62-4.37A4.71,4.71,0,0,0,148,128.81Z"/><path class="cls-4" d="M55.41,172.1,49.7,156h2.84l3.53,10.78h.07l4.45-10.57h.63l4.38,10.57h.07L69.27,156H72l-5.71,16.1h-.77l-4.65-10.71h-.07L56.18,172.1Z"/><path class="cls-4" d="M74.27,163.77a8.51,8.51,0,1,1,8.51,8.44A8.3,8.3,0,0,1,74.27,163.77Zm14.22,0a5.71,5.71,0,1,0-5.71,5.95A5.75,5.75,0,0,0,88.49,163.77Z"/><path class="cls-4" d="M95.66,171.54V156H98v3.15c1.33-2.69,2.94-3.81,5.07-3.81a3.36,3.36,0,0,1,3.22,2.48l-2.27,1.33-.28-.07a1.76,1.76,0,0,0-1.79-1.26c-1.82,0-3.67,2.38-3.67,6.44v7.28Z"/><path class="cls-4" d="M109.45,171.54V145.89h2.66v25.65Z"/><path class="cls-4" d="M116.48,163.77c0-4.93,3.26-8.43,7.39-8.43a6.69,6.69,0,0,1,5.81,3.43V145.89h2.66v25.65h-2.56v-2.69a6.94,6.94,0,0,1-6,3.36C119.42,172.21,116.48,168.92,116.48,163.77Zm13.3,0c0-3.47-2.27-6-5.35-6s-5.15,2.31-5.15,6,1.89,5.95,5,5.95C127.65,169.72,129.78,167.34,129.78,163.81Z"/><path class="cls-4" d="M136.33,168.81l2.1-1.43.17,0a4.45,4.45,0,0,0,4,2.49c1.89,0,3.08-.88,3.08-2.17,0-1-.53-1.86-3.57-2.94-4.2-1.51-5.22-3-5.22-5.08,0-2.34,2-4.37,5.5-4.37a5.7,5.7,0,0,1,5.56,3.29l-1.82,1.26-.28,0a3.65,3.65,0,0,0-3.57-2.2c-1.71,0-2.69.87-2.69,2s.42,1.68,3.6,2.87c4,1.5,5.18,2.83,5.18,5.18,0,2.55-2.31,4.55-5.84,4.55A6.73,6.73,0,0,1,136.33,168.81Z"/></svg>