<svg id="Layer_1" data-name="Layer 1" xmlns="http://www.w3.org/2000/svg" viewBox="0 0 200 200"><defs><style>.cls-1{fill:#1d1d1b;}.cls-2{fill:#fff;}</style></defs><path class="cls-1" d="M128.61,120.92c-.69.94-1.44,1.85-2.23,2.75a35.46,35.46,0,0,1-47.62,4.69c-.83-.61-1.64-1.28-2.42-2a35,35,0,0,1-2.52-2.5c-.66-.72-1.3-1.48-1.87-2.24.59.5,1.19,1,1.8,1.45a35.45,35.45,0,0,0,47.62-4.7c.8-.9,1.54-1.81,2.23-2.75a35.43,35.43,0,0,0-.55-42.55c.22.17.42.35.62.53a34.68,34.68,0,0,1,2.5,2.5A35.44,35.44,0,0,1,128.61,120.92Z"/><path class="cls-1" d="M123.6,115.64c-.69.94-1.43,1.85-2.23,2.75a35.45,35.45,0,0,1-47.62,4.7c-.61-.45-1.21-1-1.8-1.45A35.4,35.4,0,0,1,71.4,79.1c.69-1,1.43-1.87,2.22-2.77a35.46,35.46,0,0,1,47.62-4.69c.61.46,1.22.94,1.81,1.45A35.43,35.43,0,0,1,123.6,115.64Z"/><path class="cls-2" d="M121.3,103.24a24.52,24.52,0,0,1-2.43,2.36,23.61,23.61,0,0,1-14.9,5.49c-.46,0-.91,0-1.37,0A38.84,38.84,0,0,0,75,122.68,23.62,23.62,0,0,1,78.7,96.75a24.65,24.65,0,0,1,2.44-2.36A23.51,23.51,0,0,1,96,88.92c.5,0,1,0,1.49,0a38.85,38.85,0,0,0,27.6-11.62A23.65,23.65,0,0,1,121.3,103.24Z"/><path class="cls-1" d="M114.65,97.89c-.8.82-1.63,1.59-2.46,2.32a35.42,35.42,0,0,1-12.49,7.38c-.33.08-.66.18-1,.28-7.39,2.18-15.86,7.32-23.59,14.78-.5-5.5,3.32-13.57,10.23-20.54.81-.82,1.63-1.6,2.47-2.33a35.16,35.16,0,0,1,12.43-7.35c.35-.09.72-.2,1.08-.31,7.37-2.19,15.83-7.32,23.55-14.77C125.38,82.85,121.56,90.92,114.65,97.89Z"/><ellipse class="cls-2" cx="86.35" cy="77.35" rx="7.45" ry="4.56" transform="translate(-26.57 51.13) rotate(-28.78)"/></svg>